<svg xmlns="http://www.w3.org/2000/svg" width="96" height="96" viewBox="0 0 96 96"><defs><style>.a{fill:#fff;}.b{fill:#1e1e1e;}</style></defs><g transform="translate(-72 -143.717)"><rect class="a" width="96" height="96" rx="12" transform="translate(72 143.717)"/><path class="b" d="M122.7,184.14a20.573,20.573,0,0,0-10.34,2.774V173.8h3.573a1.724,1.724,0,0,0,1.409-2.716L108.6,158.666a1.722,1.722,0,0,0-2.812-.007l-8.844,12.419a1.724,1.724,0,0,0,1.4,2.723h3.681V204.82a20.679,20.679,0,1,0,20.68-20.68Zm0,31.02a10.34,10.34,0,1,1,10.339-10.34A10.34,10.34,0,0,1,122.7,215.16Z"/></g></svg>