<svg xmlns="http://www.w3.org/2000/svg" width="98" height="98" viewBox="0 0 98 98"><g transform="translate(-491.488 -2515)"><circle cx="48" cy="48" r="48" transform="translate(492.488 2516)" fill="none" stroke="#1e1e1e" stroke-miterlimit="10" stroke-width="2"/><circle cx="33.667" cy="33.667" r="33.667" transform="translate(506.821 2530.333)" fill="none" stroke="#1e1e1e" stroke-miterlimit="10" stroke-width="2"/><path d="M540.179,2525.974a.684.684,0,0,1-.684-.685v-3.271a.685.685,0,1,1,1.369,0v3.271A.684.684,0,0,1,540.179,2525.974Zm-6.606.547a.684.684,0,0,0,.555-.794l-.568-3.221a.684.684,0,1,0-1.348.238l.568,3.221a.687.687,0,0,0,.793.556Zm-6.41,1.685a.685.685,0,0,0,.409-.877l-1.119-3.075a.685.685,0,0,0-1.287.469l1.119,3.074a.686.686,0,0,0,.644.451A.693.693,0,0,0,527.163,2528.206Zm-6.021,2.773a.684.684,0,0,0,.251-.935l-1.636-2.833a.685.685,0,0,0-1.186.684l1.636,2.833a.683.683,0,0,0,.935.251Zm-5.448,3.776a.684.684,0,0,0,.085-.964l-2.1-2.506a.684.684,0,1,0-1.048.88l2.1,2.506a.682.682,0,0,0,.964.084Zm-4.709,4.666a.686.686,0,0,0-.084-.965l-2.506-2.1a.685.685,0,0,0-.88,1.049l2.506,2.1a.684.684,0,0,0,.964-.084Zm-3.827,5.411a.684.684,0,0,0-.25-.935l-2.834-1.636a.685.685,0,1,0-.684,1.186l2.833,1.636a.686.686,0,0,0,.935-.251Zm-2.83,5.994a.683.683,0,0,0-.409-.877l-3.074-1.119a.684.684,0,1,0-.468,1.286l3.074,1.119a.693.693,0,0,0,.234.042A.684.684,0,0,0,504.328,2550.826Zm-1.745,6.4a.685.685,0,0,0-.555-.793l-3.222-.568a.684.684,0,1,0-.238,1.348l3.222.568a.679.679,0,0,0,.793-.555Zm-.609,6.6a.684.684,0,0,0-.684-.685h-3.272a.685.685,0,1,0,0,1.369h3.272A.684.684,0,0,0,501.974,2563.822Zm-3.23,7.966,3.222-.568a.684.684,0,1,0-.238-1.348l-3.222.568a.685.685,0,0,0,.118,1.359A.712.712,0,0,0,498.744,2571.788Zm1.979,7.046,3.074-1.119a.684.684,0,0,0-.468-1.286l-3.074,1.118a.685.685,0,0,0,.468,1.287Zm3.173,6.595,2.832-1.635a.685.685,0,1,0-.684-1.186l-2.833,1.635a.685.685,0,1,0,.685,1.186Zm4.269,5.944,2.506-2.1a.685.685,0,0,0-.88-1.049l-2.506,2.1a.684.684,0,0,0,.88,1.048Zm5.238,5.112,2.1-2.506a.685.685,0,1,0-1.05-.88l-2.1,2.507a.685.685,0,0,0,1.05.879Zm6.045,4.125,1.635-2.833a.685.685,0,0,0-1.186-.685l-1.635,2.834a.685.685,0,1,0,1.186.684Zm6.668,3.013,1.119-3.074a.684.684,0,0,0-1.286-.468l-1.119,3.074a.684.684,0,0,0,1.286.468Zm7.092,1.81.568-3.222a.684.684,0,0,0-1.348-.238l-.568,3.222a.682.682,0,0,0,.555.792.6.6,0,0,0,.119.011A.685.685,0,0,0,533.208,2605.433Zm7.3.549v-3.271a.684.684,0,1,0-1.369,0v3.271a.684.684,0,1,0,1.369,0Zm6.727.067a.685.685,0,0,0,.555-.793l-.568-3.222a.684.684,0,1,0-1.347.238l.567,3.222a.684.684,0,0,0,.673.566A.712.712,0,0,0,547.233,2606.049Zm7.192-1.9a.684.684,0,0,0,.409-.877l-1.119-3.074a.684.684,0,0,0-1.286.468l1.118,3.074a.683.683,0,0,0,.878.409Zm6.754-3.114a.684.684,0,0,0,.251-.935l-1.636-2.833a.685.685,0,1,0-1.186.684l1.636,2.833a.683.683,0,0,0,.935.251Zm6.11-4.24a.686.686,0,0,0,.085-.964l-2.1-2.507a.685.685,0,1,0-1.05.88l2.1,2.506a.685.685,0,0,0,.965.085Zm5.281-5.238a.685.685,0,0,0-.085-.965l-2.506-2.1a.685.685,0,1,0-.88,1.05l2.507,2.1a.684.684,0,0,0,.964-.085Zm4.292-6.074a.684.684,0,0,0-.251-.935l-2.833-1.636a.685.685,0,1,0-.685,1.186l2.833,1.636a.684.684,0,0,0,.936-.251Zm3.171-6.727a.684.684,0,0,0-.41-.877l-3.074-1.119a.684.684,0,0,0-.468,1.286l3.074,1.119a.686.686,0,0,0,.878-.409Zm1.954-7.176a.683.683,0,0,0-.554-.793l-3.222-.568a.684.684,0,1,0-.238,1.348l3.222.568a.6.6,0,0,0,.119.011A.683.683,0,0,0,581.987,2571.585Zm.68-7.406a.684.684,0,0,0-.685-.684h-3.271a.684.684,0,1,0,0,1.369h3.271A.685.685,0,0,0,582.667,2564.179Zm-4.394-6.051,3.222-.568a.684.684,0,0,0-.238-1.348l-3.222.568a.684.684,0,1,0,.238,1.348Zm-1.6-6.557,3.074-1.118a.685.685,0,0,0-.468-1.287l-3.074,1.119a.684.684,0,0,0,.468,1.286Zm-2.716-6.178,2.833-1.636a.685.685,0,1,0-.684-1.186l-2.833,1.636a.685.685,0,1,0,.684,1.186Zm-3.747-5.614,2.506-2.1a.684.684,0,0,0-.879-1.049l-2.507,2.1a.685.685,0,0,0,.88,1.049Zm-4.665-4.878,2.1-2.506a.684.684,0,1,0-1.048-.88l-2.1,2.506a.684.684,0,0,0,1.048.88Zm-5.441-3.994,1.636-2.833a.685.685,0,0,0-1.186-.684l-1.636,2.833a.685.685,0,1,0,1.186.684Zm-6.051-2.988,1.118-3.074a.684.684,0,1,0-1.286-.468l-1.119,3.074a.685.685,0,1,0,1.287.468Zm-6.48-1.892.568-3.221a.684.684,0,1,0-1.348-.238l-.568,3.222a.684.684,0,1,0,1.348.237Z" transform="translate(0.488)" fill="#1e1e1e"/><g transform="translate(0.488)"><path d="M541.921,2558.617a14.617,14.617,0,0,0-7.346,1.971v-9.316h2.539a1.224,1.224,0,0,0,1-1.93l-6.216-8.823a1.225,1.225,0,0,0-2-.005l-6.283,8.823a1.225,1.225,0,0,0,1,1.935h2.615v22.037a14.691,14.691,0,1,0,14.692-14.692Zm0,22.037a7.346,7.346,0,1,1,7.345-7.345A7.345,7.345,0,0,1,541.921,2580.654Z" fill="#1e1e1e"/></g></g></svg>