<svg xmlns="http://www.w3.org/2000/svg" width="98" height="98" viewBox="0 0 98 98"><defs><style>.a{fill:none;stroke:#1e1e1e;stroke-miterlimit:10;stroke-width:2px;}.b{fill:#1e1e1e;}</style></defs><g transform="translate(-491 -2515)"><circle class="a" cx="48" cy="48" r="48" transform="translate(492 2516)"/><circle class="a" cx="33.667" cy="33.667" r="33.667" transform="translate(506.333 2530.333)"/><path class="b" d="M540.864,2602.711v3.271a.685.685,0,1,1-1.369,0v-3.271a.685.685,0,1,1,1.369,0Zm-7.41-1.242a.685.685,0,0,0-.674.566l-.568,3.221a.684.684,0,1,0,1.348.238l.568-3.221a.682.682,0,0,0-.674-.8Zm-6.525-1.717a.686.686,0,0,0-.644.451l-1.119,3.074a.685.685,0,0,0,1.287.469l1.119-3.075a.685.685,0,0,0-.409-.877A.693.693,0,0,0,526.929,2599.752Zm-6.128-2.823a.685.685,0,0,0-.594.343l-1.636,2.833a.685.685,0,0,0,1.186.684l1.636-2.833a.685.685,0,0,0-.592-1.027Zm-5.546-3.845a.683.683,0,0,0-.525.245l-2.1,2.506a.684.684,0,1,0,1.048.88l2.1-2.506a.686.686,0,0,0-.524-1.125Zm-4.8-4.749a.682.682,0,0,0-.439.16l-2.506,2.1a.685.685,0,0,0,.88,1.049l2.506-2.1a.685.685,0,0,0-.441-1.209Zm-3.895-5.509a.682.682,0,0,0-.342.091l-2.833,1.636a.685.685,0,1,0,.684,1.186l2.834-1.636a.685.685,0,0,0-.343-1.277Zm-2.88-6.1a.693.693,0,0,0-.234.042l-3.074,1.119a.684.684,0,1,0,.468,1.286l3.074-1.119a.685.685,0,0,0-.234-1.328Zm-1.775-6.51a.688.688,0,0,0-.12.011l-3.222.568a.684.684,0,1,0,.238,1.348l3.222-.568a.685.685,0,0,0-.118-1.359Zm-.62-6.719h-3.272a.685.685,0,1,0,0,1.369h3.272a.685.685,0,0,0,0-1.369Zm-2.666-7.293a.685.685,0,0,0-.118,1.359l3.222.568a.684.684,0,1,0,.238-1.348l-3.222-.568A.712.712,0,0,0,498.624,2556.2Zm1.865-7.076a.685.685,0,0,0-.234,1.328l3.074,1.118a.684.684,0,0,0,.468-1.286l-3.074-1.119A.685.685,0,0,0,500.489,2549.125Zm3.065-6.646a.685.685,0,0,0-.343,1.278l2.833,1.635a.685.685,0,1,0,.684-1.186l-2.832-1.635A.684.684,0,0,0,503.554,2542.479Zm4.172-6.012a.684.684,0,0,0-.441,1.208l2.506,2.1a.685.685,0,0,0,.88-1.049l-2.506-2.1A.678.678,0,0,0,507.726,2536.467Zm5.151-5.2a.684.684,0,0,0-.524,1.124l2.1,2.507a.685.685,0,1,0,1.05-.88l-2.1-2.506A.684.684,0,0,0,512.877,2531.27Zm5.977-4.223a.684.684,0,0,0-.592,1.027l1.635,2.834a.685.685,0,0,0,1.186-.685l-1.635-2.833A.684.684,0,0,0,518.854,2527.047Zm6.619-3.12a.684.684,0,0,0-.643.918l1.119,3.074a.684.684,0,0,0,1.286-.468l-1.119-3.074A.684.684,0,0,0,525.473,2523.927Zm7.061-1.925a.6.6,0,0,0-.119.011.682.682,0,0,0-.555.792l.568,3.222a.684.684,0,0,0,1.348-.238l-.568-3.222A.685.685,0,0,0,532.534,2522Zm7.288-.669a.685.685,0,0,0-.685.685v3.271a.684.684,0,1,0,1.369,0v-3.271A.684.684,0,0,0,539.822,2521.333Zm7.291.607a.684.684,0,0,0-.673.566l-.567,3.222a.684.684,0,1,0,1.347.238l.568-3.222a.685.685,0,0,0-.555-.793A.712.712,0,0,0,547.113,2521.94Zm7.078,1.864a.686.686,0,0,0-.644.451l-1.118,3.074a.684.684,0,0,0,1.286.468l1.119-3.074a.684.684,0,0,0-.409-.877A.692.692,0,0,0,554.191,2523.8Zm6.646,3.064a.684.684,0,0,0-.593.343l-1.636,2.833a.685.685,0,1,0,1.186.684l1.636-2.833a.685.685,0,0,0-.593-1.027Zm6.013,4.172a.684.684,0,0,0-.526.245l-2.1,2.506a.685.685,0,1,0,1.05.88l2.1-2.507a.684.684,0,0,0-.524-1.124Zm5.2,5.153a.684.684,0,0,0-.439.16l-2.507,2.1a.685.685,0,1,0,.88,1.05l2.506-2.1a.685.685,0,0,0-.44-1.21Zm4.223,5.976a.686.686,0,0,0-.342.092l-2.833,1.636a.685.685,0,1,0,.685,1.186l2.833-1.636a.685.685,0,0,0-.343-1.278Zm3.121,6.62a.685.685,0,0,0-.234.041l-3.074,1.119a.684.684,0,0,0,.468,1.286l3.074-1.119a.684.684,0,0,0-.234-1.327Zm1.925,7.06a.6.6,0,0,0-.119.011l-3.222.568a.684.684,0,1,0,.238,1.348l3.222-.568a.685.685,0,0,0-.119-1.359Zm.668,7.287h-3.271a.684.684,0,1,0,0,1.369h3.271a.684.684,0,1,0,0-1.369Zm-3.829,6.725a.685.685,0,0,0-.118,1.359l3.222.568a.684.684,0,0,0,.238-1.348l-3.222-.568A.688.688,0,0,0,578.153,2569.861Zm-1.715,6.527a.684.684,0,0,0-.234,1.327l3.074,1.119a.685.685,0,0,0,.468-1.287l-3.074-1.118A.685.685,0,0,0,576.438,2576.388Zm-2.823,6.127a.685.685,0,0,0-.343,1.278l2.833,1.636a.685.685,0,1,0,.684-1.186l-2.833-1.636A.68.68,0,0,0,573.615,2582.515Zm-3.845,5.546a.685.685,0,0,0-.441,1.209l2.507,2.1a.684.684,0,0,0,.879-1.049l-2.506-2.1A.684.684,0,0,0,569.77,2588.061Zm-4.751,4.794a.684.684,0,0,0-.523,1.124l2.1,2.506a.684.684,0,1,0,1.048-.88l-2.1-2.506A.682.682,0,0,0,565.019,2592.855Zm-5.509,3.9a.685.685,0,0,0-.593,1.027l1.636,2.833a.685.685,0,0,0,1.186-.684l-1.636-2.833A.684.684,0,0,0,559.51,2596.75Zm-6.1,2.88a.684.684,0,0,0-.643.919l1.119,3.074a.684.684,0,1,0,1.286-.468l-1.118-3.074A.686.686,0,0,0,553.408,2599.63Zm-6.509,1.777a.682.682,0,0,0-.675.8l.568,3.222a.684.684,0,1,0,1.348-.238l-.568-3.221A.684.684,0,0,0,546.9,2601.407Z"/><path class="b" d="M546.122,2587.9a1.225,1.225,0,0,1-1.344-.262l-18.156-18.155v-.01a1.212,1.212,0,0,1-.382-.881v-5.011a1.224,1.224,0,0,1,1.224-1.224h6.465a1.533,1.533,0,0,0,.189-.011,7.411,7.411,0,0,0,5.583-3.719H527.464a1.218,1.218,0,0,1-1.091-.692c-.014-.034-.031-.066-.046-.1a1.217,1.217,0,0,1-.087-.432v-5.01a1.212,1.212,0,0,1,.064-.32c.05-.119.109-.236.165-.353a1.2,1.2,0,0,1,.995-.552h12.2a7.417,7.417,0,0,0-6.42-3.712h-5.779a1.224,1.224,0,0,1-1.224-1.224v-5.011a1.224,1.224,0,0,1,1.224-1.224h25.072a1.224,1.224,0,0,1,1.224,1.224v5.011a1.224,1.224,0,0,1-1.224,1.224h-4.343a1.23,1.23,0,0,0-1.1,1.762q.249.549.468,1.132a1.237,1.237,0,0,0,1.151.818h3.824a1.224,1.224,0,0,1,1.224,1.225v5.01a1.224,1.224,0,0,1-1.224,1.224h-3.8a1.235,1.235,0,0,0-1.152.825,17.743,17.743,0,0,1-1.377,2.905,15.147,15.147,0,0,1-7.281,6.391,1.261,1.261,0,0,0-.784,1.068,1.183,1.183,0,0,0,.345.955l13.016,13.017a1.223,1.223,0,0,1-.387,1.992Z"/></g></svg>