<svg xmlns="http://www.w3.org/2000/svg" width="60" height="60" viewBox="0 0 60 60"><defs><style>.a{fill:#fff;opacity:0;}.b{fill:#fff;}</style></defs><g transform="translate(-912 -2592)"><rect class="a" width="60" height="60" transform="translate(912 2592)"/><path class="b" d="M955.44,2642.218H954v-9.44a9.168,9.168,0,0,0-3.36-6.72l-5.6-4.48,5.6-4.48a9.168,9.168,0,0,0,3.36-6.72v-9.76h1.44a1.6,1.6,0,1,0,0-3.2H928.56a1.6,1.6,0,1,0,0,3.2H930v9.76a9.168,9.168,0,0,0,3.36,6.72l5.6,4.48-5.6,4.48a9.168,9.168,0,0,0-3.36,6.72v9.44h-1.44a1.6,1.6,0,1,0,0,3.2h26.88a1.6,1.6,0,1,0,0-3.2Z"/></g></svg>