<svg xmlns="http://www.w3.org/2000/svg" width="72" height="72" viewBox="0 0 72 72"><defs><style>.a{fill:#faed50;opacity:0;}.b{fill:none;stroke:#333;stroke-linecap:round;stroke-linejoin:round;stroke-width:2.5px;}</style></defs><g transform="translate(-55.733 -1092)"><rect class="a" width="72" height="72" transform="translate(55.733 1092)"/><path class="b" d="M96.66,1124.748H95.576v-4.37a3.813,3.813,0,0,0-3.8-3.8h0a3.813,3.813,0,0,0-3.8,3.8v4.37h-.99a2.511,2.511,0,0,0-2.5,2.5v8.93a2.51,2.51,0,0,0,2.5,2.5H96.66a2.51,2.51,0,0,0,2.5-2.5v-8.93A2.511,2.511,0,0,0,96.66,1124.748Z"/><circle class="b" cx="1.274" cy="1.274" r="1.274" transform="translate(90.633 1128.982)"/><line class="b" y1="3.003" transform="translate(91.907 1131.53)"/><line class="b" x2="7.605" transform="translate(87.971 1124.748)"/><path class="b" d="M91.835,1104c-3.981,4.265-10.334,7.76-17.133,9.249,0,.454-.013,2.97-.065,14.565-.069,15.468,14.651,23.026,16.937,24.186,2.214-1.019,17.12-8.566,17.189-24.033.052-11.6.063-14.111.065-14.565A33.894,33.894,0,0,1,91.835,1104Z"/></g></svg>