<svg xmlns="http://www.w3.org/2000/svg" width="72" height="72" viewBox="0 0 72 72"><defs><style>.a{fill:#faed50;opacity:0;}.b{fill:none;stroke:#333;stroke-linecap:round;stroke-linejoin:round;stroke-width:2.5px;}</style></defs><g transform="translate(-55.733 -852)"><rect class="a" width="72" height="72" transform="translate(55.733 852)"/><path class="b" d="M110.4,868.413H73.066a5.349,5.349,0,0,0-5.333,5.333V895.08a5.349,5.349,0,0,0,5.333,5.333H94.53a1.335,1.335,0,0,1,.857.312l7.807,6.548a1.334,1.334,0,0,0,2.19-1.022v-4.505a1.333,1.333,0,0,1,1.334-1.333H110.4a5.349,5.349,0,0,0,5.334-5.333V873.746A5.349,5.349,0,0,0,110.4,868.413Z"/><path class="b" d="M91.585,888.057v-2.626a.64.64,0,0,1,.555-.636,4.119,4.119,0,1,0-4.673-4.08"/><circle class="b" cx="0.431" cy="0.431" r="0.431" transform="translate(91.153 892.06)"/></g></svg>